<svg width="1140" height="191" fill="none" xmlns="http://www.w3.org/2000/svg"><g opacity=".4" clip-path="url(#clip0)"><path d="M-70.38 0h1267.14v240H-70.38V0z" fill="#fff"/><path d="M1196.43 107.265H-68.66V0h45.984l139.214 1.95L283.329 0h561.645l130.673 1.96L1094.36 0h19.58l45.37 1.96L1196.43 0v107.265z" fill="#F2F4F8"/><path d="M274.504 118.736c19.585 0 35.462-12.569 35.462-28.075 0-15.505-15.877-28.075-35.462-28.075-19.586 0-35.463 12.57-35.463 28.075 0 15.506 15.877 28.075 35.463 28.075z" fill="#FDFEFF"/><path d="M344.327 112.8c29.655 0 53.695-19.03 53.695-42.504 0-23.475-24.04-42.505-53.695-42.505s-53.695 19.03-53.695 42.505c0 23.474 24.04 42.504 53.695 42.504z" fill="#FDFEFF"/><path d="M409.15 95.108c26.408 0 47.816-16.946 47.816-37.851 0-20.905-21.408-37.851-47.816-37.851s-47.816 16.946-47.816 37.85c0 20.906 21.408 37.852 47.816 37.852z" fill="#FDFEFF"/><path d="M466.608 84.754c20.03 0 36.267-12.855 36.267-28.712s-16.237-28.711-36.267-28.711c-20.03 0-36.267 12.854-36.267 28.711 0 15.858 16.237 28.712 36.267 28.712z" fill="#FDFEFF"/><path d="M527.457 107.951c31.241 0 56.567-20.047 56.567-44.777s-25.326-44.777-56.567-44.777-56.567 20.047-56.567 44.777 25.326 44.777 56.567 44.777z" fill="#FDFEFF"/><path d="M591.81 124.878c31.241 0 56.567-20.047 56.567-44.777s-25.326-44.777-56.567-44.777-56.567 20.047-56.567 44.777 25.326 44.777 56.567 44.777z" fill="#FDFEFF"/><path d="M655.741 136.457c31.241 0 56.567-20.047 56.567-44.777s-25.326-44.777-56.567-44.777-56.567 20.047-56.567 44.777 25.326 44.777 56.567 44.777z" fill="#FDFEFF"/><path d="M706.726 159.85c31.241 0 56.567-20.047 56.567-44.777s-25.326-44.777-56.567-44.777-56.567 20.047-56.567 44.777 25.326 44.777 56.567 44.777z" fill="#FDFEFF"/><path d="M624.933 53.544c9.274-4.716 20.069-7.215 31.093-7.2M274.343 62.038c8.269-.004 16.29 2.237 22.725 6.347l-22.725-6.347zm90.383-20.033c3.737-6.805 9.863-12.619 17.651-16.751l-17.651 16.75zm74.787-14.674c3.935 2.54 7.351 5.547 10.125 8.914l-10.125-8.914zm26.55-.696c7.24.003 14.322 1.672 20.385 4.802 6.063 3.13 10.846 7.588 13.766 12.83l-34.151-17.632zm90.767 17.672c10.066-6.173 22.443-9.517 35.178-9.502l-35.178 9.502z" stroke="#F2F4F8" stroke-linecap="round" stroke-linejoin="round"/><path d="M694.397 70.648a72.158 72.158 0 0112.378-1.097" stroke="#F2F4F8" stroke-width="1.47" stroke-linecap="round" stroke-linejoin="round"/><path d="M919.117 54.22s-4.233 5.428-1.028 10.825c3.206 5.398 21.662 10.678 21.662 10.678l16.611 7.836 5.013-3.918-5.434-14.694-6.919-2.733-8.962-1.391s-5.694-.539-8.318-2.615c-2.624-2.077-5.347-2.097-6.189-2.734a8.452 8.452 0 00-3.035-1.214 9.508 9.508 0 00-3.401-.04z" fill="#fff"/><path d="M957.724 61.322c4.557-.489 9.196-.078 13.504 1.195 4.085 1.196 7.427 2.244 10.744 2.244 5.026 0 16.896 3.32 22.568 4.065 5.67.745 15.1-.264 25.99 2.165 10.89 2.43 12.72 2.939 16.61 2.155 3.51-.571 7.12-.577 10.63-.016 3.5.56 6.83 1.675 9.78 3.278 7.99 4.31 47.04 6.857 51.16 6.554 4.12-.304 27.02 1.332 35.98-.5 8.96-1.832 31.02-6.779 36.93-7.611l-10.27 38.674H306.043v-3.654H324.3V57.257h9.073v4.634h-4.357v48.146h8.664V61.959h16.228v23.902h-5.669v24.108h14.432V85.724h31.849v17.819h10.236V38.89h10.645v67.415h8.206V24.098h13.616v32.718h5.595v24.275h-11.004v28.946h8.38v-5.808h16.091V81.091h10.038v22.04h24.694v-67.7h6.288v71.511h12.824V55.259h13.702v27.428h-6.895v26.939h6.548v-3.83h23.617v-34.1h40.971v7.328h-13.294V95.46h-10.546v10.913h16.809v4.143h18.456V79.092h9.407v27.429h5.496V58.638h8.119v9.189h-4.951v40.065h22.862V67.827h8.665v38.821h10.471V59.814h9.259V99.81s5.322-5.457 14.853-2.626c0 0-.693-4.006 5.063-16.094 0 0 5.062 7.043 5.496 11.47.507-1.994 1.422-3.91 2.71-5.671 0 0 6.189 5.25 6.982 9.541 0 0-.174-4.898 4.53-14.576 0 0 6.115 6.974 7.328 14.223 0 0 1.596-6.005 5.557-9.943 2.134 1.767 3.675 3.93 4.481 6.29 0 0 .173-2.694 4.283-9.885 0 0 3.713 5.388 4.53 9.669 0 0 .792-3.918 2.971-5.662 2.101 2.472 3.499 5.277 4.097 8.219a9.846 9.846 0 013.103-.135c1.035.12 2.03.402 2.925.83 0 0 0-4.212 3.404-10.638 1.793 3.01 2.971 6.228 3.49 9.531a41.508 41.508 0 0011.252-2.214c6.015-2.067 29.706-10.98 37.344-15.536 7.637-4.555 32.182-16.79 42.678-19.21l8.554 8.64 5.805-1.312 5.236 12.842 9.617-6.348 27.405 16.163-12.415-23.706c.284.549 13.442-1.606 17.849-4.614 4.196-2.88 8.986-4.897 11.14-4.897 0 0 1.485 8.013 9.258 13.469 0 0 13.876 1.724 18.233 6.7 0 0 5.236 4.702 11.264 5.114l-4.642-7.935-7.971-5.084 8.664.715-4.852-4.898 8.677-.92zm-993.446 52.311V79.886s28.296 7.533 31.7 13.802a27.633 27.633 0 0112.73-.046c4.156.976 7.857 2.9 10.639 5.532 0 0-.396-5.8 3.775-18.035 2.818 5.809 4.294 11.97 4.357 18.192 0 0 4.16-1.411 6.932.793v-9.257h7.13V79.112h19.618v11.285h6.734V69.688h13.281l-.631 31.063s9.345-3.301 12.91-3.301c0 0-.396-5.956 3.169-15.997 0 0 3.713 6.593 3.713 11.922 0 0 0-6.427 8.12-6.427 0 0 4.951-2.517 7.736 1.254 0 0 11.573 1.254 10.732 11.599 2.12-1.409 4.661-2.365 7.38-2.776a20.32 20.32 0 018.154.425c9.197 2.35 20.163-2.508 23.889-4.075 3.726-1.568 10.274-4.546 29.286.783 0 0 9.531.98 14.854-1.567 5.322-2.547 14.544-7.22 27.231-3.291v8.66h-19.062V108h87.375v5.593l-341.752.04z" fill="#C1C7CD"/><path d="M848.118 113.554s27.379-12.45 38.371-11.284c10.992 1.165 20.609 4.467 48.1-1.754 27.492-6.22 46.38-11.07 59.872-11.07 13.489 0 19.199-8.737 37.599-6.18 18.41 2.556 36.8 7.768 59.13 7.768 22.33 0 73.63.774 86.14-2.332v24.882l-329.212-.03z" fill="#A2A9B0"/><path d="M1181.35 113.554H-41.317v47.579h162.954v16.007h1.782v2.889h249.29c1.608-.002 3.149-.509 4.285-1.408 1.137-.9 1.777-2.119 1.78-3.392 0-1.274-.638-2.496-1.775-3.397-1.137-.902-2.68-1.41-4.29-1.412h-48.731c-1.556 0-3.049-.49-4.149-1.36-1.1-.871-1.718-2.052-1.718-3.284 0-1.231.618-2.412 1.718-3.283s2.593-1.36 4.149-1.36h290.248c14.338-.003 28.493 2.548 41.416 7.464 12.919 4.917 27.07 7.468 41.404 7.465h252.669v-14.929h231.635v-47.579z" fill="#F2F4F8"/><path d="M942.053 113.633h-38.297v-.108H-27.132v12h77.881a2.83 2.83 0 01.887.133c.281.091.537.225.753.394.215.17.386.372.502.594.116.222.174.46.173.701.003.242-.054.482-.17.706a1.87 1.87 0 01-.5.599 2.417 2.417 0 01-.754.399 2.854 2.854 0 01-.89.138H36.49c-.7 0-1.37.217-1.869.606-.498.389-.783.917-.792 1.47 0 .56.28 1.097.778 1.493.499.397 1.176.621 1.883.623h103.974c.827 0 1.62-.26 2.205-.723.585-.463.914-1.091.914-1.745 0-.655-.329-1.283-.914-1.746-.585-.463-1.378-.723-2.205-.723h-1.956c-.489 0-.958-.154-1.304-.427-.346-.274-.54-.645-.54-1.032 0-.192.047-.382.14-.559.093-.177.229-.338.4-.474.171-.135.375-.243.598-.316.224-.073.464-.111.706-.111h151.369v.431c0 2.355 1.181 4.613 3.284 6.279 2.102 1.666 4.955 2.603 7.93 2.606h23.518a2.15 2.15 0 011.247.357c.345.237.567.567.622.926.024.198-.004.398-.083.587-.08.189-.208.363-.377.511a1.864 1.864 0 01-.605.346 2.198 2.198 0 01-.73.123h-16.71c-1.439 0-2.819.452-3.838 1.257-1.018.804-1.592 1.895-1.596 3.034 0 1.141.573 2.234 1.592 3.041 1.019.806 2.401 1.259 3.842 1.259h114.112c.713 0 1.419-.111 2.077-.327a5.672 5.672 0 001.761-.933 4.375 4.375 0 001.174-1.395 3.521 3.521 0 00.409-1.645c0-1.138-.571-2.229-1.588-3.034-1.017-.805-2.396-1.257-3.833-1.257h-23.209a2.156 2.156 0 01-1.287-.394c-.35-.257-.563-.61-.594-.987a1.16 1.16 0 01.123-.559c.088-.178.22-.341.388-.478.169-.136.37-.245.593-.32a2.23 2.23 0 01.703-.112h89.38c1.074.008 2.109-.314 2.888-.899.778-.585 1.239-1.387 1.284-2.236a2.61 2.61 0 00-.29-1.237 3.246 3.246 0 00-.87-1.053 4.247 4.247 0 00-1.317-.705 4.987 4.987 0 00-1.559-.247h-20.522a2.218 2.218 0 01-1.33-.407c-.36-.267-.575-.634-.601-1.024a1.2 1.2 0 01.123-.575c.09-.184.226-.351.399-.492.174-.141.381-.253.61-.328.23-.076.476-.115.725-.113h339.153c.627-.001 1.232.186 1.692.524.459.339.739.802.783 1.298.014.253-.038.506-.151.744a1.898 1.898 0 01-.509.637 2.48 2.48 0 01-.783.428c-.295.099-.613.15-.933.15h-3.54c-.722-.007-1.42.202-1.955.586-.535.383-.867.912-.929 1.481-.026.303.028.608.157.894.129.286.331.549.593.771.262.222.579.399.931.521.352.121.732.184 1.116.185h86.794c.721.007 1.419-.202 1.954-.586.535-.383.867-.912.93-1.481a1.803 1.803 0 00-.157-.894 2.21 2.21 0 00-.593-.771 2.93 2.93 0 00-.932-.521 3.474 3.474 0 00-1.116-.185h-21.574c-.628.001-1.233-.186-1.692-.524-.46-.339-.74-.802-.784-1.298a1.532 1.532 0 01.152-.744c.113-.237.286-.454.508-.637.222-.183.489-.328.784-.428a2.94 2.94 0 01.933-.15h61.703a2.29 2.29 0 001.374-.421c.372-.276.593-.656.619-1.058a1.248 1.248 0 00-.131-.595 1.561 1.561 0 00-.412-.508 2.02 2.02 0 00-.629-.342 2.392 2.392 0 00-.747-.123h-23.035c-.908.011-1.785-.259-2.444-.754-.659-.494-1.048-1.172-1.083-1.891a2.224 2.224 0 01.241-1.051c.168-.334.418-.638.736-.895a3.569 3.569 0 011.116-.602c.419-.14.868-.213 1.323-.214h34.98c.291 0 .58-.046.848-.136.268-.089.511-.221.714-.386.204-.165.363-.361.468-.576a1.41 1.41 0 00.148-.675c-.035-.458-.293-.888-.72-1.198-.427-.311-.99-.478-1.57-.467z" fill="#DDE1E6"/><path d="M383.131 119.422h24.929m5.385 5.789h10.669-10.669zm136.936-5.789h10.67-10.67zm-6.511 3.526h6.56-6.56zm-16.413 33.277h6.56-6.56zm16.413-3.321h6.56-6.56zm95.384-34.06h6.548-6.548zm130.128 1.303h6.548-6.548zm65.38-.921h6.548-6.548zm-8.627 4.33h6.548-6.548zm-131.886 11.197h6.56-6.56zm-271.125-13.901h10.67-10.67z" stroke="#fff" stroke-linecap="round" stroke-linejoin="round"/><path d="M574.926 134.488h2.748m-6.449-2.4h4.023-4.023zm7.055 0h2.761-2.761zm25.585-3.595h2.761-2.761zm2.835 2.116h2.748-2.748z" stroke="#DDE1E6" stroke-linecap="round" stroke-linejoin="round"/><path d="M118.827 155.059c0-.264-.47-11.588-.47-11.588" stroke="#fff" stroke-width="1.28" stroke-miterlimit="10"/><path d="M118.345 144.764c.902 0 1.634-.579 1.634-1.293s-.732-1.293-1.634-1.293c-.903 0-1.634.579-1.634 1.293s.731 1.293 1.634 1.293z" fill="#fff"/><path d="M124.001 155.892c.161-.225 6.858-10.236 6.858-10.236" stroke="#fff" stroke-width="1.28" stroke-miterlimit="10"/><path d="M130.858 146.948c.903 0 1.634-.578 1.634-1.293 0-.714-.731-1.293-1.634-1.293-.902 0-1.633.579-1.633 1.293 0 .715.731 1.293 1.633 1.293z" fill="#fff"/><path d="M126.514 152.15l5.644-1.636m-13.504.422l-6.387-5.055 6.387 5.055zm8.85-.255l-1.708-3.341 1.708 3.341z" stroke="#fff" stroke-width="1.28" stroke-miterlimit="10"/><path d="M980.326 149.437c.148-4.683 6.585-11.755 11.573-13.714" stroke="#fff" stroke-miterlimit="10"/><path d="M1117.47 118.393c-2.47 2.757-4.22 5.873-5.16 9.169 0-2.86-2.35-6.083-2.82-8.914m-132.593 29.721c.144-1.035.367-2.062.668-3.076a7.174 7.174 0 00-.173-3.585l-.495 6.661zm-3.627.588c.109-1.305-.293-2.605-1.151-3.723l1.151 3.723zm-9.036 5.093c-.866-2.047-.804-6.22.991-7.905l-.991 7.905zm4.419-3.134c.19-1.162.471-2.314.842-3.448.532-2.207.83-4.445.891-6.691a25.968 25.968 0 00-.322-6.573 32.086 32.086 0 00-2.401-8.297l.99 25.009zm-3.057-19.004c1.968.783 3.045 2.106 4.543 3.203l-4.543-3.203zm3.713-1.303c.989-1.156 2.214-2.172 3.627-3.008l-3.627 3.008zm1.114 8.62c1.015-1.283 2.686-1.724 4.048-2.684l-4.048 2.684zm-.619 4.771c-.833-1.611-2.101-3.058-3.713-4.242l3.713 4.242zm35.276-2.684a8.339 8.339 0 00-.67-3.39c-.39-.943-.91-1.849-1.54-2.703-.15-.186-.43-.617-.43-.568l2.64 6.661zm3.71-.196c-.04-.919-.18-1.833-.42-2.733-.23-1.023-.6-2.024-1.09-2.988-.18-.372-.44-1.273-.89-1.46l2.4 7.181zm-5.65 1.44c-.65-2.057-2.74-3.585-4.706-4.839l4.706 4.839zm-103.444 27.419a6.003 6.003 0 00-.718-2.4c-1.645-3.508-3.877-6.826-6.634-9.865l7.352 12.265zm3.206-2.743c-1.015-1.852-.099-4.575.421-6.397l-.421 6.397zm-13.281 5.427c-.384-1.577-2.365-2.939-3.714-3.987l3.714 3.987zm5.867-11.168c.066-1.163.231-2.322.495-3.467l-.495 3.467zm2.228 4.115a16.152 16.152 0 00-3.8-1.509l3.8 1.509zm-9.407 4.702c.043-.967.18-1.93.408-2.88l-.408 2.88zm14.593-6.799c.755-.372 1.362-.979 2.154-1.303l-2.154 1.303zm206.438-36.323c.63-2.469-4.11-5.319-5.16-7.553l5.16 7.553zm6.57-.823c.54-1.8 1.55-3.489 2.97-4.957l-2.97 4.957z" stroke="#fff" stroke-linecap="round" stroke-linejoin="round"/><path d="M1139.7 125.711c-.13-2.733 2.79-6.181 4.55-8.307m3.75 6.074c.71-1.725 3.12-3.243 4.85-4.34l-4.85 4.34zm-5.64 1.91c-.19-2.263 3.54-5.026 5.33-6.319l-5.33 6.319z" stroke="#fff" stroke-width="1.28" stroke-linecap="round" stroke-linejoin="round"/><path d="M791.725 168.372h29.36m-93.007-4.261h29.36-29.36zm35.858 0h12.576-12.576zm18.394 8.522h12.563-12.563zm18.183-8.522h12.254-12.254z" stroke="#DDE1E6" stroke-linecap="round" stroke-linejoin="round"/><path d="M184.702 93.757s-.718-3.39 1.597-8.728c1.621 2.727 2.418 5.715 2.327 8.728h-3.924zm10.744 1.959s-.73-4.898 2.253-12.529c2.109 3.859 3.148 8.031 3.045 12.235l-5.298.294zm11.462-1.038s-.582-3.615 1.82-9.248c1.736 2.69 2.703 5.65 2.834 8.67l-4.654.578z" fill="#C1C7CD"/><path d="M210.423 91.984c.346-2.854 1.326-5.636 2.897-8.22 1.846 2.652 2.912 5.599 3.119 8.621l-6.016 3.33v-3.731zm36.119-7.23h17.416v5.3h-9.68v15.556h17.193V90.054h8.021v17.907h-32.95V84.754z" fill="#C1C7CD"/><path d="M218.667 97.92v10.041h27.875V84.754h-8.813V97.92h-19.062zm35.611-7.866h17.193v15.556h-17.193V90.054z" fill="#F2F4F8"/><path d="M283.329 107.961V67.004h7.167v37.156h15.546v3.801h-22.713z" fill="#C1C7CD"/><path d="M273.043 67.004v23.05h6.449v17.907h3.837V67.004h-10.286zm32.999-9.747h18.307v52.634h-18.307V57.257zm23.023 4.702h8.64v48.079h-8.64V61.959zm19.198 23.765h14.396v24.245h-14.396V85.724zm56.456 17.819h-10.212V85.724h-8.689V38.89h18.901v64.653zm18.851-79.435h-14.42V38.89h6.213v67.415h8.207V24.108zm32.715 56.983h-24.521v28.947h8.38v-5.809h16.141V81.091zm34.732-45.659h-30.4v45.659h5.706v22.041h24.694v-67.7zm6.288 19.827h12.823v51.673h-12.823V55.259zm49.845 16.438v34.128h-23.666v3.801h-6.548V82.678h6.895V71.697h23.319zm52.346 7.395H574.79v16.37h-10.558v10.912h16.809v4.144h18.455V79.092zm14.916-20.453h-9.16v20.453h3.652v27.419h5.508V58.639zm3.131 9.188h22.862v40.065h-22.862V67.827zm42.06-8.013h-16.524v8.013h6.053v38.821h10.471V59.814z" fill="#F2F4F8"/><path d="M890.104 63.674s-6.523-3.762-9.061-3.762c-2.537 0-6.189.47-8.553 0-2.364-.47-5.26-1.695-8.181-1.822-2.179-.098-9.346-1.215-12.131-1.519a18.606 18.606 0 00-6.263.784l8.553 8.64 5.793-1.273 5.236 12.842 9.617-6.348 27.405 16.164-12.415-23.706z" fill="#fff"/></g><defs><clipPath id="clip0"><path fill="#fff" d="M0 0h1140v191H0z"/></clipPath></defs></svg>